# xmcd
#
# Track frame offsets:
#   182
#   14052
#   30555
#   51800
#   86587
#   100332
#   117562
#   137632
#   153330
#
# Disc length: 2225 seconds
#
# Revision: 3
# Processed by: cddbd v1.5.2PL0 Copyright (c) Steve Scherf et al.
# Submitted via: Media_Universe 3.0
#
DISCID=7308af09
DTITLE=Twisted Sister - Twisted Sister - Stay Hungry
DYEAR=1984
DGENRE=Metal
TTITLE0=Twisted Sister - Stay Hungry
TTITLE1=Twisted Sister - We're Not Gonna Take It
TTITLE2=Twisted Sister - Burn In Hell
TTITLE3=Twisted Sister - Horror-Teria (Captain Howdy/Street Justice)
TTITLE4=Twisted Sister - I Wanna Rock
TTITLE5=Twisted Sister - The Price
TTITLE6=Twisted Sister - Don't Let Me Down
TTITLE7=Twisted Sister - The Beast
TTITLE8=Twisted Sister - S.M.F.
EXTD=YEAR: 1984
EXTT0=
EXTT1=
EXTT2=
EXTT3=
EXTT4=
EXTT5=
EXTT6=
EXTT7=
EXTT8=
PLAYORDER=
